<?xml version="1.0" encoding="UTF-8"?>
<svg version="1.1" viewBox="0 0 2000 2000" width="1280" height="1280" xmlns="http://www.w3.org/2000/svg">
<path transform="translate(208,131)" d="m0 0h1602l17 1 17 4 14 7 13 10 11 11 10 14 7 16 3 11 1 7 1 136-1 947v456l-1 29-4 20-9 19-9 12-11 11-14 9-16 6-14 3-7 1h-699l-626 1-291-1-18-3-16-6-11-7-14-12-10-12-9-17-4-13-1-19v-1568l2-11 5-12 7-12 9-11 9-9 13-9 14-6 9-2zm769 94-3 16-3 32-1 5 5-2 7-4 1-3-3-38-1-6zm740 65 1 4zm-1 6-5 12-9 6-12 3v2l14 4 5 3 4 9 3 5 2-1 4-11 6-7 12-2-1-2-12-4-5-4-5-13zm-63 4v21l-3 24-5 14-6 9-12 6-17 4-17 2-23 1v1l23 2 30 5 11 4 9 8 6 12 2 8 1 17v26h3l3-20 3-28 5-13 4-5v-2l5-2 8-4 21-4 14-2 20-1 1-2-18-1-11-2-18-2-12-4-8-5-6-8-4-11-3-27-2-6-2-14zm-76 103 1 2 1-2zm0 4-2 5-5 5-10 3 1 4 6 4 3 1 2 4 5 8h2l3-12 8-6-1-3-7-2-3-10zm-1048 1184-2 11-5 13-3 3-10 3 4 3 10 5 4 5 2 9 3-1 5-10 3-3 14-5 4-2-9-3-7-3-6-9-4-7-2-9zm-60 17-3 38-4 13-5 9-7 6-12 5-14 3-28 2-7 1 1 2 30 4 20 3 12 6 5 4 5 9 4 12 1 6v12l1 23 2 1 1-3 2-23 4-23 6-12 8-7 9-5 30-5 19-2 1-2-34-3-14-3-10-4-8-7-6-12-5-24-3-24zm-80 104-3 7-4 4-5 2 2 4 7 6h2l1 4 5-1 3-5 7-6v-2l-4-2h-3l-2-4-5-7z"/>
<path transform="translate(982,259)" d="m0 0h1l11 85 11 76 9 54 9 47 9 42 10 40 13 43 11 31 13 31 12 25 10 18 14 22 16 21 12 14 9 10 8 8 8 7 10 9 12 9 15 11 16 10 24 13 32 16 39 15 18 6 50 14 36 9 41 9 66 12 45 7 76 11 67 8 31 4 7 2v1l-115 14-64 9-66 11-48 9-39 8-51 13-52 16-29 11-25 11-24 12-18 10-17 11-19 13-9 8-8 7-17 16-8 8-9 11-13 16-13 19-11 18-13 24-13 28-10 26-13 38-13 46-11 47-11 56-7 40-7 44-8 55-11 85-2 33-2-1-4-17-6-44-9-69-9-62-11-66-13-65-12-50-13-44-11-32-16-38-11-23-14-24-12-18-9-12-13-16-7-8-9-10-8-7-11-10-13-10-19-14-20-12-26-14-27-13-36-14-58-18-25-6-33-8-56-11-95-16-46-6-37-5-83-10-1-2 9-2 67-8 53-7 55-8 60-10 53-10 48-11 45-12 37-11 27-10 26-11 38-19 17-10 22-15 18-14 5-5h2v-2l8-7 12-11 12-14 13-16 10-14 11-17 10-18 9-17 11-26 5-11 11-30 11-35 12-45 10-45 10-51 10-60 12-83 7-54 10-6h2z" fill="#FEFEFE"/>
</svg>
