<svg width="131" height="130" viewBox="0 0 131 130" fill="none" xmlns="http://www.w3.org/2000/svg">
<rect x="39" y="35" width="53" height="61" fill="white"/>
<path d="M65 0H114C122.837 0 130 7.16344 130 16V65H97.5C79.5507 65 65 50.4493 65 32.5V0Z" fill="black"/>
<path d="M0 65L0 16C0 7.16344 7.16344 0 16 0L65 0L65 32.5C65 50.4493 50.4493 65 32.5 65H0Z" fill="black"/>
<path d="M65.2374 129L16.2378 129.179C7.40126 129.211 0.21165 122.074 0.179317 113.237L2.73192e-05 64.2378L32.4998 64.1189C50.4489 64.0532 65.0528 78.5506 65.1185 96.4997L65.2374 129Z" fill="black"/>
<path d="M130.358 64.36L130.087 113.359C130.039 122.196 122.836 129.319 113.999 129.271L65 129L65.1796 96.5002C65.2788 78.5513 79.9098 64.0812 97.8588 64.1804L130.358 64.36Z" fill="black"/>
</svg>
